# xmcd
#
# Track frame offsets:
#	150
#	20913
#	35810
#	47289
#	61958
#	75916
#	94990
#	108532
#	122552
#	140103
#	159069
#	169073
#	180753
#	197516
#
# Disc length: 2936 seconds
#
# Revision: 1
# Processed by: cddbd v1.5.2PL0 Copyright (c) Steve Scherf et al.
# Submitted via: audiograbber 1.83.01
#
DISCID=ad0b760e
DTITLE=Various Artist - Kantritund 3
DYEAR=2008
DGENRE=Country
TTITLE0=Meie Mees - Kui Mul Oleks Miljon Krooni
TTITLE1=Los Desperados - Lõke Preerias
TTITLE2=Beergrass - Miks Kell Kuus
TTITLE3=Wallavanem - Mis Sest Et Häbi On
TTITLE4=Kannus - Fly Me South
TTITLE5=Ilona Aasvere - Ka Siis Kui Vaikib Suu
TTITLE6=MTJ - Vana Caddilac
TTITLE7=L' Grupp - Gator Man
TTITLE8=Nööp - Siiski Veel Loodan
TTITLE9=Leila Miller - Kodu Läte
TTITLE10=Puhas Vuuk - Lõbus Rändaja
TTITLE11=Testament - Maarjamaa
TTITLE12=Tip-Malts - See On Hea
TTITLE13=Chick'n'Band - Workin' Man Blues
EXTD=
EXTT0=
EXTT1=
EXTT2=
EXTT3=
EXTT4=
EXTT5=
EXTT6=
EXTT7=
EXTT8=
EXTT9=
EXTT10=
EXTT11=
EXTT12=
EXTT13=
PLAYORDER=
